<mxfile host="app.diagrams.net" modified="2024-06-06T02:22:34.184Z" agent="Mozilla/5.0 (Windows NT 10.0; Win64; x64) AppleWebKit/537.36 (KHTML, like Gecko) Chrome/125.0.0.0 Safari/537.36 Edg/125.0.0.0" etag="KfcOkjWOgYUccaJPmvgq" version="24.4.7" type="github">
  <diagram name="Page-1" id="Zy-w6W-C0kYEm2fz4P6m">
    <mxGraphModel dx="1179" dy="629" grid="1" gridSize="10" guides="1" tooltips="1" connect="1" arrows="1" fold="1" page="1" pageScale="1" pageWidth="827" pageHeight="1169" math="0" shadow="0">
      <root>
        <mxCell id="0" />
        <mxCell id="1" parent="0" />
        <mxCell id="uLbwFLICeJDCESh0d5ET-1" value="ADsad" style="rounded=0;whiteSpace=wrap;html=1;" vertex="1" parent="1">
          <mxGeometry x="100" y="120" width="20" height="160" as="geometry" />
        </mxCell>
        <mxCell id="uLbwFLICeJDCESh0d5ET-2" value="" style="rounded=0;whiteSpace=wrap;html=1;" vertex="1" parent="1">
          <mxGeometry x="140" y="130" width="20" height="140" as="geometry" />
        </mxCell>
        <mxCell id="uLbwFLICeJDCESh0d5ET-3" value="" style="rounded=0;whiteSpace=wrap;html=1;" vertex="1" parent="1">
          <mxGeometry x="180" y="140" width="20" height="120" as="geometry" />
        </mxCell>
        <mxCell id="uLbwFLICeJDCESh0d5ET-4" value="" style="rounded=0;whiteSpace=wrap;html=1;" vertex="1" parent="1">
          <mxGeometry x="220" y="150" width="20" height="100" as="geometry" />
        </mxCell>
        <mxCell id="uLbwFLICeJDCESh0d5ET-5" value="" style="rounded=0;whiteSpace=wrap;html=1;" vertex="1" parent="1">
          <mxGeometry x="260" y="160" width="20" height="80" as="geometry" />
        </mxCell>
        <mxCell id="uLbwFLICeJDCESh0d5ET-8" value="" style="rounded=0;whiteSpace=wrap;html=1;" vertex="1" parent="1">
          <mxGeometry x="100" y="359" width="20" height="160" as="geometry" />
        </mxCell>
        <mxCell id="uLbwFLICeJDCESh0d5ET-9" value="" style="rounded=0;whiteSpace=wrap;html=1;" vertex="1" parent="1">
          <mxGeometry x="140" y="369" width="20" height="140" as="geometry" />
        </mxCell>
        <mxCell id="uLbwFLICeJDCESh0d5ET-10" value="" style="rounded=0;whiteSpace=wrap;html=1;" vertex="1" parent="1">
          <mxGeometry x="180" y="379" width="20" height="120" as="geometry" />
        </mxCell>
        <mxCell id="uLbwFLICeJDCESh0d5ET-11" value="" style="rounded=0;whiteSpace=wrap;html=1;" vertex="1" parent="1">
          <mxGeometry x="220" y="389" width="20" height="100" as="geometry" />
        </mxCell>
        <mxCell id="uLbwFLICeJDCESh0d5ET-12" value="" style="rounded=0;whiteSpace=wrap;html=1;" vertex="1" parent="1">
          <mxGeometry x="260" y="399" width="20" height="80" as="geometry" />
        </mxCell>
        <mxCell id="uLbwFLICeJDCESh0d5ET-13" value="" style="rounded=0;whiteSpace=wrap;html=1;" vertex="1" parent="1">
          <mxGeometry x="300" y="170" width="20" height="60" as="geometry" />
        </mxCell>
        <mxCell id="uLbwFLICeJDCESh0d5ET-14" value="" style="rounded=0;whiteSpace=wrap;html=1;" vertex="1" parent="1">
          <mxGeometry x="300" y="409" width="20" height="60" as="geometry" />
        </mxCell>
        <mxCell id="uLbwFLICeJDCESh0d5ET-15" value="C" style="ellipse;whiteSpace=wrap;html=1;aspect=fixed;" vertex="1" parent="1">
          <mxGeometry x="180" y="309" width="20" height="20" as="geometry" />
        </mxCell>
        <mxCell id="uLbwFLICeJDCESh0d5ET-16" value="" style="endArrow=none;html=1;rounded=0;entryX=0.5;entryY=1;entryDx=0;entryDy=0;exitX=0.5;exitY=0;exitDx=0;exitDy=0;" edge="1" parent="1" source="uLbwFLICeJDCESh0d5ET-15" target="uLbwFLICeJDCESh0d5ET-3">
          <mxGeometry width="50" height="50" relative="1" as="geometry">
            <mxPoint x="380" y="340" as="sourcePoint" />
            <mxPoint x="430" y="290" as="targetPoint" />
          </mxGeometry>
        </mxCell>
        <mxCell id="uLbwFLICeJDCESh0d5ET-17" value="" style="endArrow=none;html=1;rounded=0;exitX=0.5;exitY=0;exitDx=0;exitDy=0;entryX=0.5;entryY=1;entryDx=0;entryDy=0;" edge="1" parent="1" source="uLbwFLICeJDCESh0d5ET-10" target="uLbwFLICeJDCESh0d5ET-15">
          <mxGeometry width="50" height="50" relative="1" as="geometry">
            <mxPoint x="380" y="340" as="sourcePoint" />
            <mxPoint x="430" y="290" as="targetPoint" />
          </mxGeometry>
        </mxCell>
        <mxCell id="uLbwFLICeJDCESh0d5ET-18" value="" style="rounded=0;whiteSpace=wrap;html=1;" vertex="1" parent="1">
          <mxGeometry x="210" y="270" width="20" height="100" as="geometry" />
        </mxCell>
        <mxCell id="uLbwFLICeJDCESh0d5ET-19" value="" style="rounded=0;whiteSpace=wrap;html=1;" vertex="1" parent="1">
          <mxGeometry x="240" y="280" width="20" height="80" as="geometry" />
        </mxCell>
        <mxCell id="uLbwFLICeJDCESh0d5ET-20" value="" style="rounded=0;whiteSpace=wrap;html=1;" vertex="1" parent="1">
          <mxGeometry x="270" y="290" width="20" height="60" as="geometry" />
        </mxCell>
        <mxCell id="uLbwFLICeJDCESh0d5ET-21" value="C" style="ellipse;whiteSpace=wrap;html=1;aspect=fixed;" vertex="1" parent="1">
          <mxGeometry x="300" y="310" width="20" height="20" as="geometry" />
        </mxCell>
        <mxCell id="uLbwFLICeJDCESh0d5ET-26" value="" style="endArrow=none;html=1;rounded=0;entryX=0.5;entryY=1;entryDx=0;entryDy=0;exitX=0.5;exitY=0;exitDx=0;exitDy=0;" edge="1" parent="1" source="uLbwFLICeJDCESh0d5ET-21" target="uLbwFLICeJDCESh0d5ET-13">
          <mxGeometry width="50" height="50" relative="1" as="geometry">
            <mxPoint x="380" y="340" as="sourcePoint" />
            <mxPoint x="430" y="290" as="targetPoint" />
          </mxGeometry>
        </mxCell>
        <mxCell id="uLbwFLICeJDCESh0d5ET-27" value="" style="endArrow=none;html=1;rounded=0;exitX=0.5;exitY=0;exitDx=0;exitDy=0;entryX=0.5;entryY=1;entryDx=0;entryDy=0;" edge="1" parent="1" source="uLbwFLICeJDCESh0d5ET-14" target="uLbwFLICeJDCESh0d5ET-21">
          <mxGeometry width="50" height="50" relative="1" as="geometry">
            <mxPoint x="380" y="340" as="sourcePoint" />
            <mxPoint x="430" y="290" as="targetPoint" />
          </mxGeometry>
        </mxCell>
        <mxCell id="uLbwFLICeJDCESh0d5ET-32" value="" style="rounded=0;whiteSpace=wrap;html=1;" vertex="1" parent="1">
          <mxGeometry x="340" y="279" width="20" height="80" as="geometry" />
        </mxCell>
        <mxCell id="uLbwFLICeJDCESh0d5ET-33" value="" style="rounded=0;whiteSpace=wrap;html=1;" vertex="1" parent="1">
          <mxGeometry x="380" y="269" width="20" height="100" as="geometry" />
        </mxCell>
        <mxCell id="uLbwFLICeJDCESh0d5ET-34" value="" style="rounded=0;whiteSpace=wrap;html=1;" vertex="1" parent="1">
          <mxGeometry x="420" y="260" width="20" height="120" as="geometry" />
        </mxCell>
        <mxCell id="uLbwFLICeJDCESh0d5ET-35" value="" style="rounded=0;whiteSpace=wrap;html=1;" vertex="1" parent="1">
          <mxGeometry x="460" y="250" width="20" height="140" as="geometry" />
        </mxCell>
        <mxCell id="uLbwFLICeJDCESh0d5ET-36" value="" style="rounded=0;whiteSpace=wrap;html=1;" vertex="1" parent="1">
          <mxGeometry x="500" y="240" width="20" height="160" as="geometry" />
        </mxCell>
        <mxCell id="uLbwFLICeJDCESh0d5ET-37" value="" style="rounded=0;whiteSpace=wrap;html=1;" vertex="1" parent="1">
          <mxGeometry x="540" y="240" width="20" height="160" as="geometry" />
        </mxCell>
        <mxCell id="uLbwFLICeJDCESh0d5ET-48" value="" style="shape=flexArrow;endArrow=classic;html=1;rounded=0;endWidth=3.7373737373737366;endSize=1.293283582089552;width=2.835820895522388;" edge="1" parent="1">
          <mxGeometry width="50" height="50" relative="1" as="geometry">
            <mxPoint x="366" y="320" as="sourcePoint" />
            <mxPoint x="376" y="320" as="targetPoint" />
          </mxGeometry>
        </mxCell>
        <mxCell id="uLbwFLICeJDCESh0d5ET-52" value="" style="shape=flexArrow;endArrow=classic;html=1;rounded=0;endWidth=3.7373737373737366;endSize=1.293283582089552;width=2.835820895522388;" edge="1" parent="1">
          <mxGeometry width="50" height="50" relative="1" as="geometry">
            <mxPoint x="200" y="319.9" as="sourcePoint" />
            <mxPoint x="210" y="319.9" as="targetPoint" />
          </mxGeometry>
        </mxCell>
        <mxCell id="uLbwFLICeJDCESh0d5ET-53" value="" style="shape=flexArrow;endArrow=classic;html=1;rounded=0;endWidth=3.7373737373737366;endSize=1.293283582089552;width=2.835820895522388;" edge="1" parent="1">
          <mxGeometry width="50" height="50" relative="1" as="geometry">
            <mxPoint x="230" y="319.9" as="sourcePoint" />
            <mxPoint x="240" y="319.9" as="targetPoint" />
          </mxGeometry>
        </mxCell>
        <mxCell id="uLbwFLICeJDCESh0d5ET-54" value="" style="shape=flexArrow;endArrow=classic;html=1;rounded=0;endWidth=3.7373737373737366;endSize=1.293283582089552;width=2.835820895522388;" edge="1" parent="1">
          <mxGeometry width="50" height="50" relative="1" as="geometry">
            <mxPoint x="260" y="319.9" as="sourcePoint" />
            <mxPoint x="270" y="319.9" as="targetPoint" />
          </mxGeometry>
        </mxCell>
        <mxCell id="uLbwFLICeJDCESh0d5ET-57" value="" style="shape=flexArrow;endArrow=classic;html=1;rounded=0;endWidth=3.7373737373737366;endSize=1.293283582089552;width=2.835820895522388;" edge="1" parent="1">
          <mxGeometry width="50" height="50" relative="1" as="geometry">
            <mxPoint x="125" y="440" as="sourcePoint" />
            <mxPoint x="135" y="440" as="targetPoint" />
          </mxGeometry>
        </mxCell>
        <mxCell id="uLbwFLICeJDCESh0d5ET-58" value="" style="shape=flexArrow;endArrow=classic;html=1;rounded=0;endWidth=3.7373737373737366;endSize=1.293283582089552;width=2.835820895522388;" edge="1" parent="1">
          <mxGeometry width="50" height="50" relative="1" as="geometry">
            <mxPoint x="165" y="439.9" as="sourcePoint" />
            <mxPoint x="175" y="439.9" as="targetPoint" />
          </mxGeometry>
        </mxCell>
        <mxCell id="uLbwFLICeJDCESh0d5ET-59" value="" style="shape=flexArrow;endArrow=classic;html=1;rounded=0;endWidth=3.7373737373737366;endSize=1.293283582089552;width=2.835820895522388;" edge="1" parent="1">
          <mxGeometry width="50" height="50" relative="1" as="geometry">
            <mxPoint x="205" y="440" as="sourcePoint" />
            <mxPoint x="215" y="440" as="targetPoint" />
          </mxGeometry>
        </mxCell>
        <mxCell id="uLbwFLICeJDCESh0d5ET-60" value="" style="shape=flexArrow;endArrow=classic;html=1;rounded=0;endWidth=3.7373737373737366;endSize=1.293283582089552;width=2.835820895522388;" edge="1" parent="1">
          <mxGeometry width="50" height="50" relative="1" as="geometry">
            <mxPoint x="245" y="440" as="sourcePoint" />
            <mxPoint x="255" y="440" as="targetPoint" />
          </mxGeometry>
        </mxCell>
        <mxCell id="uLbwFLICeJDCESh0d5ET-61" value="" style="shape=flexArrow;endArrow=classic;html=1;rounded=0;endWidth=3.7373737373737366;endSize=1.293283582089552;width=2.835820895522388;" edge="1" parent="1">
          <mxGeometry width="50" height="50" relative="1" as="geometry">
            <mxPoint x="285" y="440" as="sourcePoint" />
            <mxPoint x="295" y="440" as="targetPoint" />
          </mxGeometry>
        </mxCell>
        <mxCell id="uLbwFLICeJDCESh0d5ET-62" value="" style="shape=flexArrow;endArrow=classic;html=1;rounded=0;endWidth=3.7373737373737366;endSize=1.293283582089552;width=2.835820895522388;" edge="1" parent="1">
          <mxGeometry width="50" height="50" relative="1" as="geometry">
            <mxPoint x="125" y="199.89999999999998" as="sourcePoint" />
            <mxPoint x="135" y="199.89999999999998" as="targetPoint" />
          </mxGeometry>
        </mxCell>
        <mxCell id="uLbwFLICeJDCESh0d5ET-63" value="" style="shape=flexArrow;endArrow=classic;html=1;rounded=0;endWidth=3.7373737373737366;endSize=1.293283582089552;width=2.835820895522388;" edge="1" parent="1">
          <mxGeometry width="50" height="50" relative="1" as="geometry">
            <mxPoint x="165" y="199.89999999999998" as="sourcePoint" />
            <mxPoint x="175" y="199.89999999999998" as="targetPoint" />
          </mxGeometry>
        </mxCell>
        <mxCell id="uLbwFLICeJDCESh0d5ET-64" value="" style="shape=flexArrow;endArrow=classic;html=1;rounded=0;endWidth=3.7373737373737366;endSize=1.293283582089552;width=2.835820895522388;" edge="1" parent="1">
          <mxGeometry width="50" height="50" relative="1" as="geometry">
            <mxPoint x="205" y="199.89999999999998" as="sourcePoint" />
            <mxPoint x="215" y="199.89999999999998" as="targetPoint" />
          </mxGeometry>
        </mxCell>
        <mxCell id="uLbwFLICeJDCESh0d5ET-65" value="" style="shape=flexArrow;endArrow=classic;html=1;rounded=0;endWidth=3.7373737373737366;endSize=1.293283582089552;width=2.835820895522388;" edge="1" parent="1">
          <mxGeometry width="50" height="50" relative="1" as="geometry">
            <mxPoint x="245" y="199.89999999999998" as="sourcePoint" />
            <mxPoint x="255" y="199.89999999999998" as="targetPoint" />
          </mxGeometry>
        </mxCell>
        <mxCell id="uLbwFLICeJDCESh0d5ET-66" value="" style="shape=flexArrow;endArrow=classic;html=1;rounded=0;endWidth=3.7373737373737366;endSize=1.293283582089552;width=2.835820895522388;" edge="1" parent="1">
          <mxGeometry width="50" height="50" relative="1" as="geometry">
            <mxPoint x="285" y="199.89999999999998" as="sourcePoint" />
            <mxPoint x="295" y="199.89999999999998" as="targetPoint" />
          </mxGeometry>
        </mxCell>
        <mxCell id="uLbwFLICeJDCESh0d5ET-67" value="" style="shape=flexArrow;endArrow=classic;html=1;rounded=0;endWidth=3.7373737373737366;endSize=1.293283582089552;width=2.835820895522388;" edge="1" parent="1">
          <mxGeometry width="50" height="50" relative="1" as="geometry">
            <mxPoint x="326" y="319.9" as="sourcePoint" />
            <mxPoint x="336" y="319.9" as="targetPoint" />
          </mxGeometry>
        </mxCell>
        <mxCell id="uLbwFLICeJDCESh0d5ET-68" value="" style="shape=flexArrow;endArrow=classic;html=1;rounded=0;endWidth=3.7373737373737366;endSize=1.293283582089552;width=2.835820895522388;" edge="1" parent="1">
          <mxGeometry width="50" height="50" relative="1" as="geometry">
            <mxPoint x="405" y="320" as="sourcePoint" />
            <mxPoint x="415" y="320" as="targetPoint" />
          </mxGeometry>
        </mxCell>
        <mxCell id="uLbwFLICeJDCESh0d5ET-70" value="" style="shape=flexArrow;endArrow=classic;html=1;rounded=0;endWidth=3.7373737373737366;endSize=1.293283582089552;width=2.835820895522388;" edge="1" parent="1">
          <mxGeometry width="50" height="50" relative="1" as="geometry">
            <mxPoint x="445" y="320" as="sourcePoint" />
            <mxPoint x="455" y="320" as="targetPoint" />
          </mxGeometry>
        </mxCell>
        <mxCell id="uLbwFLICeJDCESh0d5ET-71" value="" style="shape=flexArrow;endArrow=classic;html=1;rounded=0;endWidth=3.7373737373737366;endSize=1.293283582089552;width=2.835820895522388;" edge="1" parent="1">
          <mxGeometry width="50" height="50" relative="1" as="geometry">
            <mxPoint x="485" y="320" as="sourcePoint" />
            <mxPoint x="495" y="320" as="targetPoint" />
          </mxGeometry>
        </mxCell>
        <mxCell id="uLbwFLICeJDCESh0d5ET-72" value="" style="shape=flexArrow;endArrow=classic;html=1;rounded=0;endWidth=3.7373737373737366;endSize=1.293283582089552;width=2.835820895522388;" edge="1" parent="1">
          <mxGeometry width="50" height="50" relative="1" as="geometry">
            <mxPoint x="525" y="320" as="sourcePoint" />
            <mxPoint x="535" y="320" as="targetPoint" />
          </mxGeometry>
        </mxCell>
        <mxCell id="uLbwFLICeJDCESh0d5ET-74" value="" style="endArrow=none;html=1;rounded=0;exitX=1;exitY=0.5;exitDx=0;exitDy=0;" edge="1" parent="1" source="uLbwFLICeJDCESh0d5ET-20">
          <mxGeometry width="50" height="50" relative="1" as="geometry">
            <mxPoint x="310" y="370" as="sourcePoint" />
            <mxPoint x="300" y="320" as="targetPoint" />
          </mxGeometry>
        </mxCell>
      </root>
    </mxGraphModel>
  </diagram>
</mxfile>
